<svg width="1200" height="600" viewBox="0 0 1200 600" fill="none" xmlns="http://www.w3.org/2000/svg">
  <defs>
    <linearGradient id="bg" x1="0" y1="0" x2="1200" y2="600" gradientUnits="userSpaceOnUse">
      <stop stop-color="#0B1220"/>
      <stop offset="1" stop-color="#111827"/>
    </linearGradient>
    <linearGradient id="accent" x1="0" y1="0" x2="1" y2="1">
      <stop stop-color="#7C3AED"/>
      <stop offset="1" stop-color="#06B6D4"/>
    </linearGradient>
    <filter id="blur" x="-40" y="-40" width="1280" height="680" filterUnits="userSpaceOnUse" color-interpolation-filters="sRGB">
      <feGaussianBlur stdDeviation="24"/>
    </filter>
  </defs>

  <rect width="1200" height="600" rx="24" fill="url(#bg)"/>

  <g opacity="0.35" filter="url(#blur)">
    <circle cx="260" cy="160" r="140" fill="url(#accent)"/>
    <circle cx="940" cy="460" r="160" fill="url(#accent)"/>
  </g>

  <g opacity="0.22">
    <path d="M0 420C180 340 260 520 460 440C660 360 760 500 940 430C1120 360 1200 420 1200 420V600H0V420Z" fill="#FFFFFF"/>
  </g>

  <g>
    <rect x="80" y="90" width="520" height="420" rx="18" fill="#0F172A" stroke="#24304A"/>
    <rect x="110" y="130" width="320" height="18" rx="9" fill="#334155"/>
    <rect x="110" y="165" width="420" height="12" rx="6" fill="#1F2937"/>
    <rect x="110" y="190" width="380" height="12" rx="6" fill="#1F2937"/>

    <rect x="110" y="238" width="250" height="42" rx="12" fill="url(#accent)"/>

    <rect x="110" y="310" width="460" height="14" rx="7" fill="#1F2937"/>
    <rect x="110" y="338" width="420" height="14" rx="7" fill="#1F2937"/>
    <rect x="110" y="366" width="380" height="14" rx="7" fill="#1F2937"/>

    <rect x="110" y="412" width="140" height="70" rx="16" fill="#0B1220" stroke="#24304A"/>
    <rect x="268" y="412" width="140" height="70" rx="16" fill="#0B1220" stroke="#24304A"/>
    <rect x="426" y="412" width="144" height="70" rx="16" fill="#0B1220" stroke="#24304A"/>
  </g>

  <g>
    <text x="670" y="210" fill="#E5E7EB" font-family="ui-sans-serif, system-ui, -apple-system, Segoe UI, Roboto" font-size="34" font-weight="700">Optimal Consulting</text>
    <text x="670" y="250" fill="#94A3B8" font-family="ui-sans-serif, system-ui, -apple-system, Segoe UI, Roboto" font-size="18">Tenant-aware base layout + consulting preview</text>

    <g transform="translate(670 300)">
      <rect width="260" height="44" rx="12" fill="url(#accent)"/>
      <text x="20" y="28" fill="#0B1220" font-family="ui-sans-serif, system-ui, -apple-system, Segoe UI, Roboto" font-size="14" font-weight="700">Preview is working</text>
    </g>

    <g transform="translate(670 362)" opacity="0.9">
      <rect width="390" height="16" rx="8" fill="#1F2937"/>
      <rect y="28" width="340" height="16" rx="8" fill="#1F2937"/>
      <rect y="56" width="300" height="16" rx="8" fill="#1F2937"/>
    </g>
  </g>
</svg>