<svg xmlns="http://www.w3.org/2000/svg" width="1200" height="800" viewBox="0 0 1200 800">
  <defs>
    <radialGradient id="atgBg" cx="50%" cy="50%" r="75%">
      <stop offset="0%" stop-color="#0F172A"/>
      <stop offset="100%" stop-color="#111827"/>
    </radialGradient>
    <linearGradient id="nodeGrad" x1="0" y1="0" x2="1" y2="1">
      <stop offset="0%" stop-color="#CBD5E1"/>
      <stop offset="100%" stop-color="#F1F5F9"/>
    </linearGradient>
  </defs>
  <rect width="1200" height="800" fill="url(#atgBg)"/>
  <circle cx="600" cy="400" r="90" fill="url(#nodeGrad)" stroke="#94A3B8" stroke-width="3"/>
  <path d="M520 400 L360 300" stroke="#64748B" stroke-width="3"/>
  <path d="M520 420 L360 500" stroke="#64748B" stroke-width="3"/>
  <path d="M680 400 L840 300" stroke="#64748B" stroke-width="3"/>
  <path d="M680 420 L840 520" stroke="#64748B" stroke-width="3"/>
  <g fill="url(#nodeGrad)" stroke="#94A3B8" stroke-width="2">
    <rect x="300" y="260" width="140" height="90" rx="12"/>
    <rect x="300" y="470" width="160" height="100" rx="12"/>
    <rect x="900" y="260" width="160" height="100" rx="12"/>
    <rect x="900" y="480" width="140" height="90" rx="12"/>
  </g>
  <path d="M560 400 L640 400" stroke="#22C55E" stroke-width="8" />
  <polygon points="640,400 630,395 630,405" fill="#22C55E"/>
  <text x="50%" y="120" font-size="64" text-anchor="middle" fill="#E5E7EB" font-family="Inter, Arial">Authority That Grows</text>
  <text x="50%" y="170" font-size="22" text-anchor="middle" fill="#CBD5E1" font-family="Inter, Arial">Quality backlinks that strengthen domain authority steadily</text>
</svg>